/* XPM */
static char *bitsend___[] = {
"32 32 2 1",
" 	c None",
".	c #1C75BC",
"                                ",
"                                ",
"                                ",
"                                ",
"                                ",
"                                ",
"       .                        ",
"       ........................ ",
"      ..........................",
"      ..........................",
"      ..........................",
"                         .......",
"                         ...... ",
"                        ....... ",
" ............           ....... ",
" ............           ......  ",
" ...........           .......  ",
"............           .......  ",
"                       ......   ",
"                      .......   ",
"                      .......   ",
"  ..........................    ",
"  ..........................    ",
" ..........................     ",
" ........................       ",
"                                ",
"                                ",
"                                ",
"                                ",
"                                ",
"                                ",
"                                "};
