/* XPM */
static char *bitsend___[] = {
"128 128 2 1",
" 	c None",
".	c #1C75BC",
"                                                                                                                                ",
"                                                                                                                                ",
"                                                                                                                                ",
"                                                                                                                                ",
"                                                                                                                                ",
"                                                                                                                                ",
"                                                                                                                                ",
"                                                                                                                                ",
"                                                                                                                                ",
"                                                                                                                                ",
"                                                                                                                                ",
"                                                                                                                                ",
"                                                                                                                                ",
"                                                                                                                                ",
"                                                                                                                                ",
"                                                                                                                                ",
"                                                                                                                                ",
"                                                                                                                                ",
"                                                                                                                                ",
"                                                                                                                                ",
"                                                                                                                                ",
"                                                                                                                                ",
"                                                                                                                                ",
"                                                                                                                                ",
"                                                                                                                                ",
"                                                                                                                                ",
"                            ..........................................................................................          ",
"                           ..............................................................................................       ",
"                           ...............................................................................................      ",
"                           .................................................................................................    ",
"                          ...................................................................................................   ",
"                          ...................................................................................................   ",
"                          ....................................................................................................  ",
"                         ...................................................................................................... ",
"                         ...................................................................................................... ",
"                         ...................................................................................................... ",
"                        ........................................................................................................",
"                        ........................................................................................................",
"                        ........................................................................................................",
"                       .........................................................................................................",
"                       .........................................................................................................",
"                       .........................................................................................................",
"                      ..........................................................................................................",
"                      ..........................................................................................................",
"                      ......................................................................................................... ",
"                                                                                                    ........................... ",
"                                                                                                   ............................ ",
"                                                                                                   ............................ ",
"                                                                                                   ...........................  ",
"                                                                                                  ............................  ",
"                                                                                                  ............................  ",
"                                                                                                  ...........................   ",
"                                                                                                  ...........................   ",
"                                                                                                 ............................   ",
"                                                                                                 ...........................    ",
"      ...............................................                                            ...........................    ",
"      ..............................................                                            ............................    ",
"     ...............................................                                            ...........................     ",
"     ...............................................                                            ...........................     ",
"     ..............................................                                            ...........................      ",
"    ...............................................                                            ...........................      ",
"    ...............................................                                            ...........................      ",
"   ...............................................                                            ...........................       ",
"   ...............................................                                            ...........................       ",
"   ..............................................                                             ...........................       ",
"  ...............................................                                            ............................       ",
"  ...............................................                                            ...........................        ",
"  ..............................................                                             ...........................        ",
" ...............................................                                            ............................        ",
" ...............................................                                            ...........................         ",
" ..............................................                                             ...........................         ",
"...............................................                                            ............................         ",
"...............................................                                            ...........................          ",
"                                                                                           ...........................          ",
"                                                                                          ............................          ",
"                                                                                          ...........................           ",
"                                                                                          ...........................           ",
"                                                                                         ............................           ",
"                                                                                         ...........................            ",
"                                                                                         ...........................            ",
"                                                                                        ............................            ",
"                                                                                        ...........................             ",
"                                                                                        ...........................             ",
"         ..........................................................................................................             ",
"         .........................................................................................................              ",
"        ..........................................................................................................              ",
"        .........................................................................................................               ",
"        .........................................................................................................               ",
"       .........................................................................................................                ",
"       ........................................................................................................                 ",
"       .......................................................................................................                  ",
"      ........................................................................................................                  ",
"      .......................................................................................................                   ",
"      ......................................................................................................                    ",
"     ......................................................................................................                     ",
"     ....................................................................................................                       ",
"     ...................................................................................................                        ",
"    ...................................................................................................                         ",
"    .................................................................................................                           ",
"    ...............................................................................................                             ",
"   .............................................................................................                                ",
"   ..........................................................................................                                   ",
"                                                                                                                                ",
"                                                                                                                                ",
"                                                                                                                                ",
"                                                                                                                                ",
"                                                                                                                                ",
"                                                                                                                                ",
"                                                                                                                                ",
"                                                                                                                                ",
"                                                                                                                                ",
"                                                                                                                                ",
"                                                                                                                                ",
"                                                                                                                                ",
"                                                                                                                                ",
"                                                                                                                                ",
"                                                                                                                                ",
"                                                                                                                                ",
"                                                                                                                                ",
"                                                                                                                                ",
"                                                                                                                                ",
"                                                                                                                                ",
"                                                                                                                                ",
"                                                                                                                                ",
"                                                                                                                                ",
"                                                                                                                                ",
"                                                                                                                                ",
"                                                                                                                                "};
