/* XPM */
static char *bitsend32[] = {
/* columns rows colors chars-per-pixel */
"32 32 118 2 ",
"   c #201F23",
".  c #1F2025",
"X  c #1F212F",
"o  c #1F2D3C",
"O  c #212126",
"+  c #22222B",
"@  c #28272B",
"#  c #28292D",
"$  c #212333",
"%  c #222934",
"&  c #2D2D32",
"*  c #21253C",
"=  c #2C2E3C",
"-  c #37373C",
";  c #3B3B3F",
":  c #1E2243",
">  c #1E3753",
",  c #1D3A51",
"<  c #1C3D5A",
"1  c #212643",
"2  c #222845",
"3  c #2B2D45",
"4  c #21264C",
"5  c #22294C",
"6  c #213345",
"7  c #343644",
"8  c #3C3C41",
"9  c #3C3E4E",
"0  c #212752",
"q  c #222A53",
"w  c #222B5A",
"e  c #223057",
"r  c #2D3151",
"t  c #21325D",
"y  c #212761",
"u  c #222C63",
"i  c #222B6B",
"p  c #223164",
"a  c #22356D",
"s  c #223B6D",
"d  c #223D76",
"f  c #1D4374",
"g  c #1A4E74",
"h  c #1D467C",
"j  c #1A4E7E",
"k  c #234B73",
"l  c #444347",
"z  c #4A4A4D",
"x  c #4C4D53",
"c  c #4D4E5A",
"v  c #525255",
"b  c #59585B",
"n  c #4D5161",
"m  c #5C5C61",
"M  c #54576B",
"N  c #5D5F6B",
"B  c #596373",
"V  c #5C627C",
"C  c #616164",
"Z  c #65656A",
"A  c #696A6C",
"S  c #6B6C74",
"D  c #727275",
"F  c #71727A",
"G  c #7B7B7F",
"H  c #1A528E",
"J  c #1A5192",
"K  c #1A529A",
"L  c #195A9C",
"P  c #1A52A0",
"I  c #1B58A7",
"U  c #1663A3",
"Y  c #1860A1",
"T  c #156AAF",
"R  c #156BB5",
"E  c #156DBA",
"W  c #6F7385",
"Q  c #7B7B82",
"!  c #7E7F88",
"~  c #156EC0",
"^  c #156FCA",
"/  c #1571C4",
"(  c #1573CB",
")  c #1282DF",
"_  c #1186E6",
"`  c #1188EA",
"'  c #828284",
"]  c #85868B",
"[  c #8A8A8D",
"{  c #8C8D94",
"}  c #858899",
"|  c #8D929A",
" . c #919192",
".. c #929399",
"X. c #9A9B9D",
"o. c #858AA1",
"O. c #9B9EB0",
"+. c #9FA0A3",
"@. c #A2A2A5",
"#. c #A1A2A8",
"$. c #ABABAD",
"%. c #A5A7B0",
"&. c #AFAFB1",
"*. c #B3B3B4",
"=. c #B0B3BC",
"-. c #B9B9BA",
";. c #C3C3C4",
":. c #C7C7C8",
">. c #C8C8C9",
",. c #C3C7D1",
"<. c #D3D3D4",
"1. c #D3D5DA",
"2. c #DCDBDC",
"3. c #E4E4E5",
"4. c #E7E7E8",
"5. c #ECECEC",
"6. c #F3F3F4",
"7. c #FFFFFF",
/* pixels */
"q 5 q 2 5 1 4 5 q q 4 w i 4 1 q * * * * e 1 1 1 1 w a $   +   + ",
"0 w q y q q 4 0 q u s a u q w w 1 = 3 : $ 1 $ $ $ $ $ $ + + O   ",
"q 5 5 * q 5 0 q u a k k t M +.2.6.7.7.6.<.X.c $ $ $ X + + + + + ",
"$ 4 5 1 * 4 0 0 i i a B <.6.6.6.7.6.5.5.6.5.7.>.x + $ + + $ O   ",
"* 1 0 0 4 4 4 0 y w #.7.7.6.7.7.5.1.2.6.7.7.7.7.7.{ $ $ $ $   O ",
"$ $ * q p 0 4 0 q ;.7.7.7.3.' ;         l  .5.7.7.7.&.+ + + @ O ",
"$ * $ * w 0 0 4 *.7.7.7. .@ O O   O O O O O # $.7.7.7.X.$       ",
"$ $ * * 1 4 : Q 7.7.7.A O O O + O O + O O O O O ] 7.7.7.C   @   ",
"1 1 4 4 0 y r 6.7.7.G   O O O O O O +   + + O +   X.7.7.3.+ O O ",
"4 i 0 4 0 0 { 7.7.;.  + + + O + + $ * o * + $ $ + @ 2.7.7.D O O ",
"1 1 4 4 4 : 2.7.7.v $ 2 5 5 2 q 4 5 5 2 * 2 $ + + O S 7.7.:.O O ",
"1 * * 4 1 9 7.7.2.$ q 1 1 * > / 4 2 * 5 5 2 1 $ 1 + @ 6.7.7.# O ",
"$ 0 4 1 4 S 7.7.%.q 2 % $ % E ) * 1 5 a w 4 1 * $ $ + ;.7.7.x O ",
"* 1 w 1 o ! 7.7.o.2 % +   R _ _ j H J I P K J h % . + @.7.7.Z O ",
"$ * * 4 * ] 7.7.] % $ $ T ` ` ` ` ` ` ` ` ` ` E 1 $ + X.7.7.A O ",
"X $ $ * 4 W 7.7.| $ $ o R E E E E E ~ ( ( ^ ~ f $ + + $.7.7.C O ",
"* 1 1 1 4 N 7.7.-.% O o R R R R E R E ( _ _ L $ $ % . <.7.7.l   ",
"$ $ $ $ $ = 7.7.6.@ O O O O + % * * 2 H ` Y % * + $ - 7.7.6.O   ",
"n $ % $ $ X ;.7.7.D O O O O O + 2 * 5 j U % $ + + + ..7.7.&.  O ",
"6.V 4 4 4 1 S 7.7.4.# O O O O O $ $ + > + $ + + + 8 6.7.7.v O   ",
"7.7.W o w y * 1.7.7.-.O O O j g < A Z A x C A . @ <.7.7.;.  O   ",
"7.7.7.} y d 4 x 7.7.7.*.@ + , , 6 z v 8 ; m z & :.7.7.6.;   O   ",
"7.7.7.7.O.5 w 4 G 7.7.7.2.v O O O O O + . . Z 4.7.7.7.C +   O   ",
"7.7.7.7.7.=.q w o G 7.7.7.7.<.] b l z b  .2.7.7.7.6.A O   O O O ",
"7.7.7.7.7.7.,.r 5 $ b 4.7.7.7.7.7.7.7.7.7.7.7.7.2.v O O O O O   ",
"7.7.7.7.7.7.7.1.7 1 $ & [ 5.7.7.7.7.7.7.7.7.3.] @ O O O O   O O ",
"7.7.7.7.7.7.7.7.3.9 * $ $ + m { *.;.;.&.] v     O O O O +     O ",
"7.7.7.7.7.7.7.7.7.5.c * + $ + + + $ $ $     +   O O   O   O O   ",
"7.7.7.7.7.7.7.7.7.7.6.N * $ $ + +   $ + @   + @             +   ",
"7.7.7.7.7.7.7.7.7.7.7.7.F 1   + + +   +   @       @       O O   ",
"7.7.7.7.7.7.7.7.7.7.7.7.7.] $ + + + + O                 O     O ",
"7.7.7.7.7.7.7.7.7.7.7.7.7.7.+.* O O + O @     @       @   O O   "
};
