<?xml version="1.0" standalone="no"?>
<!DOCTYPE svg PUBLIC "-//W3C//DTD SVG 20010904//EN"
 "http://www.w3.org/TR/2001/REC-SVG-20010904/DTD/svg10.dtd">
<svg version="1.0" xmlns="http://www.w3.org/2000/svg"
 width="256.000000pt" height="256.000000pt" viewBox="0 0 256.000000 256.000000"
 preserveAspectRatio="xMidYMid meet">

<g transform="translate(0.000000,256.000000) scale(0.100000,-0.100000)"
fill="#000000" stroke="none">
<path d="M0 1825 l0 -735 605 -545 606 -545 674 0 675 0 0 1280 0 1280 -1280
0 -1280 0 0 -735z m1663 556 c365 -94 635 -357 734 -716 24 -88 27 -117 28
-250 0 -125 -4 -165 -24 -240 -44 -173 -128 -323 -250 -449 -95 -97 -170 -152
-292 -210 -151 -73 -225 -89 -419 -90 -143 -1 -176 2 -250 22 -357 97 -625
368 -722 730 -28 106 -31 332 -4 447 56 245 206 469 405 604 124 85 294 152
431 171 94 13 274 3 363 -19z"/>
<path d="M1461 2304 c0 -11 3 -14 6 -6 3 7 2 16 -1 19 -3 4 -6 -2 -5 -13z"/>
<path d="M1300 2163 c-107 -18 -257 -89 -352 -167 -116 -96 -218 -260 -253
-407 -22 -93 -20 -268 5 -362 62 -244 240 -441 475 -526 494 -179 1015 184
1015 706 0 128 -20 222 -70 328 -127 272 -390 437 -689 434 -58 -1 -117 -4
-131 -6z m-133 -589 c-57 -60 -124 -132 -148 -161 -24 -28 -48 -52 -53 -52 -9
-1 30 42 194 217 57 61 106 110 108 108 2 -2 -44 -53 -101 -112z m550 -111
c-81 -2 -213 -2 -295 0 -81 1 -14 3 148 3 162 0 229 -2 147 -3z m173 -93 c0
-5 -5 -10 -11 -10 -5 0 -7 5 -4 10 3 6 8 10 11 10 2 0 4 -4 4 -10z m-96 -133
c-38 -40 -71 -71 -73 -69 -5 3 130 142 138 142 2 0 -27 -33 -65 -73z m-165
-176 c-30 -32 -56 -56 -58 -54 -5 3 99 113 107 113 2 0 -20 -26 -49 -59z m211
-98 c-1 -5 -7 -33 -14 -62 -10 -47 -16 -56 -40 -62 -52 -14 -76 13 -53 59 10
21 20 27 44 27 25 0 33 5 38 22 5 21 26 33 25 16z m-365 -14 c11 -17 -3 -23
-20 -9 -18 15 -68 5 -62 -13 2 -6 20 -15 40 -20 43 -10 52 -29 26 -53 -23 -20
-83 -24 -101 -6 -16 16 -2 28 16 13 20 -16 71 -10 71 8 0 8 -15 19 -33 23 -63
17 -49 68 19 68 21 0 41 -5 44 -11z m-255 -34 c-7 -8 -17 -15 -23 -15 -6 0 -3
6 8 13 11 9 15 19 10 28 -6 11 -5 12 5 2 11 -10 11 -15 0 -28z m-83 -7 c-3 -8
-6 -5 -6 6 -1 11 2 17 5 13 3 -3 4 -12 1 -19z m453 7 c18 -22 3 -35 -41 -35
-28 0 -39 -4 -36 -12 2 -8 19 -12 38 -11 32 1 33 0 15 -13 -25 -18 -41 -18
-60 2 -20 19 -20 34 0 62 18 26 65 30 84 7z m120 1 c0 -7 -3 -28 -6 -45 -10
-46 -27 -38 -19 9 4 25 3 40 -3 40 -27 0 -42 -15 -48 -46 -3 -19 -11 -34 -16
-34 -10 0 -3 64 8 82 9 15 84 9 84 -6z m-393 -38 c-3 -7 -5 -2 -5 12 0 14 2
19 5 13 2 -7 2 -19 0 -25z m-57 -25 c-11 -17 -11 -17 -6 0 3 10 7 26 7 35 1
15 2 15 6 0 2 -10 -1 -25 -7 -35z m-133 0 c-3 -10 -5 -4 -5 12 0 17 2 24 5 18
2 -7 2 -21 0 -30z m83 2 c-7 -8 -20 -15 -29 -14 -11 0 -9 3 7 9 12 5 22 17 23
27 0 11 3 13 6 5 3 -7 -1 -19 -7 -27z m115 -13 c-3 -3 -11 0 -18 7 -9 10 -8
11 6 5 10 -3 15 -9 12 -12z"/>
<path d="M1762 908 c-16 -16 -15 -58 2 -58 19 0 38 26 34 46 -4 22 -20 28 -36
12z"/>
<path d="M1527 913 c-14 -13 -6 -23 18 -23 16 0 25 6 25 15 0 15 -31 21 -43 8z"/>
</g>
</svg>
